<svg xmlns="http://www.w3.org/2000/svg" width="224" height="48" viewBox="0 0 224 48">
  <g id="NewIcon" transform="translate(0.022)">
    <g id="Group_3682" transform="translate(-136.022 -743)">
      <circle id="Ellipse_128" cx="24" cy="24" r="24" transform="translate(312 743)" fill="#0a4daa"/>
      <g id="Group_4138" transform="translate(5606 2501)">
        <circle id="Ellipse_166" cx="2.4" cy="2.4" r="2.4" transform="translate(-5284.1 -1728.1)" fill="#fddd01"/>
        <circle id="Ellipse_167" cx="2.4" cy="2.4" r="2.4" transform="translate(-5266.6 -1728.1)" fill="#fddd01"/>
        <path id="Path_5573" d="M-5285.8-1732.5l2.7-3.8a2.088,2.088,0,0,1,1.6-.8h.8v4.8h-5.3C-5285.9-1732.3-5285.9-1732.4-5285.8-1732.5Z" fill="#fddd01"/>
        <path id="Path_5574" d="M-5286.3-1731.2h6.2a.472.472,0,0,0,.5-.5v-5.3h2.7l2.1,6.8v4.5h-3.5a3.35,3.35,0,0,0-3.3-3.4,3.35,3.35,0,0,0-3.4,3.3v.1h-.4a1,1,0,0,1-1-1v-3.9A1.074,1.074,0,0,1-5286.3-1731.2Z" fill="#fddd01"/>
        <path id="Path_5576" d="M-5258-1726.7a1,1,0,0,1-1,1h-1.9a3.329,3.329,0,0,0-3.3-3.3,3.329,3.329,0,0,0-3.3,3.3h-8.5v-4.7h18v3.7Z" fill="#fddd01"/>
        <path id="Subtraction_2" d="M-5258.1-1732.2h-15.7l-2.5-6.9h-2.6v-3.5h4.1l1,1.5,16.7,2.8,2,3.4-3,2.7Zm-5.9-5.3v4h1.5v-4Zm-3,0v4h1.5v-4Zm-3,0v4h1.5v-4Zm-3,0v4h1.5v-4Z" fill="#fddd01"/>
        <g id="Group_4137" transform="translate(-5601.33 -2509.33)">
          <g id="Union_38" transform="translate(336.33 762.33)">
            <path id="Path_5573-2" d="M5,10.8a2.006,2.006,0,0,1-2-2V7H1.2a2,2,0,0,1,0-4H3V1.2a2,2,0,0,1,4,0V3H8.8a2,2,0,0,1,0,4H7V8.8a2.006,2.006,0,0,1-2,2Z" fill="#fddd01"/>
            <path id="Path_5574-2" d="M5,10A1.216,1.216,0,0,0,6.2,8.8V6.2H8.7A1.24,1.24,0,0,0,10,5,1.24,1.24,0,0,0,8.7,3.8H6.2V1.2A1.216,1.216,0,0,0,5,0,1.309,1.309,0,0,0,3.7,1.2V3.7H1.2A1.389,1.389,0,0,0,0,5,1.216,1.216,0,0,0,1.2,6.2H3.7V8.7A1.324,1.324,0,0,0,5,10m0,1.5A2.712,2.712,0,0,1,2.3,8.7v-1h-1A2.8,2.8,0,0,1-1.5,4.9,2.734,2.734,0,0,1,1.3,2.1h1v-1A2.775,2.775,0,0,1,5-1.7,2.8,2.8,0,0,1,7.8,1.1v1h1a2.8,2.8,0,0,1,2.8,2.8A2.734,2.734,0,0,1,8.8,7.7h-1v1A2.86,2.86,0,0,1,5,11.5Z" fill="#0a4daa"/>
          </g>
        </g>
      </g>
    </g>
    <g id="Group_3683" transform="translate(-136.022 -743)">
      <path id="Path_5170" d="M154.5,749H280.9c10.2,0,25.1,16.5,25.1,16.5S291.1,782,280.9,782H154.5c-10.2,0-18.5-7.4-18.5-16.5S144.3,749,154.5,749Z" fill="#fddd01"/>
      <g id="Group_4136" data-name="Group 4136">
        <path id="Path_5573-2-2" data-name="Path 5573" d="M156.8,766.3a4.117,4.117,0,0,1-1.3,2.8,5.216,5.216,0,0,1-5.5.4,4.034,4.034,0,0,1-1.6-1.8,6.088,6.088,0,0,1-.6-2.8v-1.1a6.088,6.088,0,0,1,.6-2.8,4.944,4.944,0,0,1,1.6-1.9,4.093,4.093,0,0,1,2.5-.7,4.04,4.04,0,0,1,3,1,4.374,4.374,0,0,1,1.3,2.9h-2a2.979,2.979,0,0,0-.7-1.8,2.176,2.176,0,0,0-1.7-.5,2.384,2.384,0,0,0-2,.9,4.279,4.279,0,0,0-.7,2.8v1a4.462,4.462,0,0,0,.7,2.8,2.276,2.276,0,0,0,1.9,1,2.969,2.969,0,0,0,1.8-.5,2.451,2.451,0,0,0,.7-1.7h2Z" fill="#033c90"/>
        <path id="Path_5574-2-2" data-name="Path 5574" d="M162.8,763.3c-.2,0-.5-.1-.8-.1a1.728,1.728,0,0,0-1.8,1V770h-1.9v-8.5h1.8v.9a2.265,2.265,0,0,1,1.9-1.1,1.483,1.483,0,0,1,.7.1Z" fill="#033c90"/>
        <path id="Path_5575" data-name="Path 5575" d="M167.6,770.2a4,4,0,0,1-2.9-1.1,4.426,4.426,0,0,1-1.1-3v-.2a5.932,5.932,0,0,1,.5-2.3,3.638,3.638,0,0,1,1.4-1.6,3.379,3.379,0,0,1,2-.6,3.534,3.534,0,0,1,2.7,1.1,4.771,4.771,0,0,1,.9,3.1v.8h-5.5a3.251,3.251,0,0,0,.7,1.7,2.035,2.035,0,0,0,1.5.6,2.476,2.476,0,0,0,2.1-1.1l1,1a3.325,3.325,0,0,1-1.4,1.2A5.331,5.331,0,0,1,167.6,770.2Zm-.2-7.3a2.106,2.106,0,0,0-1.3.5,2.292,2.292,0,0,0-.6,1.5h3.6v-.1a1.978,1.978,0,0,0-.5-1.4A1.656,1.656,0,0,0,167.4,762.9Z" fill="#033c90"/>
        <path id="Path_5576-2" data-name="Path 5576" d="M177.5,770a1.549,1.549,0,0,1-.2-.8,2.94,2.94,0,0,1-2.2.9,3.139,3.139,0,0,1-2.1-.7,2.5,2.5,0,0,1-.8-1.8,2.393,2.393,0,0,1,1-2.1,4.789,4.789,0,0,1,2.9-.7h1.2v-.6a1.5,1.5,0,0,0-.4-1.1,1.246,1.246,0,0,0-1.1-.4,2.016,2.016,0,0,0-1.1.3.909.909,0,0,0-.4.8h-1.9a2.106,2.106,0,0,1,.5-1.3,2.539,2.539,0,0,1,1.3-.9,4.844,4.844,0,0,1,1.8-.3,3.612,3.612,0,0,1,2.4.7,2.583,2.583,0,0,1,.9,2.1v3.8a4.178,4.178,0,0,0,.3,1.8v.1h-2.1Zm-2.1-1.4a2.279,2.279,0,0,0,1.1-.3,1.576,1.576,0,0,0,.7-.7V766h-1a2.537,2.537,0,0,0-1.6.4,1.016,1.016,0,0,0-.5,1,.975.975,0,0,0,.4.9A1.4,1.4,0,0,0,175.4,768.6Z" fill="#033c90"/>
        <path id="Path_5577" data-name="Path 5577" d="M183.5,759.5v2.1H185V763h-1.5v4.7a.75.75,0,0,0,.9.9,1.953,1.953,0,0,0,.7-.1V770a5.021,5.021,0,0,1-1.2.2c-1.5,0-2.2-.8-2.2-2.4V763h-1.4v-1.4h1.4v-2.1Z" fill="#033c90"/>
        <path id="Path_5578" data-name="Path 5578" d="M190.2,770.2a4,4,0,0,1-2.9-1.1,4.426,4.426,0,0,1-1.1-3v-.2a5.932,5.932,0,0,1,.5-2.3,3.638,3.638,0,0,1,1.4-1.6,3.379,3.379,0,0,1,2-.6,3.534,3.534,0,0,1,2.7,1.1,4.771,4.771,0,0,1,.9,3.1v.8H188a3.251,3.251,0,0,0,.7,1.7,2.035,2.035,0,0,0,1.5.6,2.476,2.476,0,0,0,2.1-1.1l1,1a3.325,3.325,0,0,1-1.4,1.2A3.868,3.868,0,0,1,190.2,770.2Zm-.2-7.3a2.106,2.106,0,0,0-1.3.5,2.292,2.292,0,0,0-.6,1.5h3.6v-.1a1.978,1.978,0,0,0-.5-1.4A1.656,1.656,0,0,0,190,762.9Z" fill="#033c90"/>
        <path id="Path_5579" data-name="Path 5579" d="M208.2,770h-2l-5.1-8.1V770h-2V758.6h2l5.1,8.1v-8.1h2Z" fill="#033c90"/>
        <path id="Path_5580" data-name="Path 5580" d="M214.1,770.2a4,4,0,0,1-2.9-1.1,4.426,4.426,0,0,1-1.1-3v-.2a5.932,5.932,0,0,1,.5-2.3A3.638,3.638,0,0,1,212,762a3.379,3.379,0,0,1,2-.6,3.534,3.534,0,0,1,2.7,1.1,4.771,4.771,0,0,1,.9,3.1v.8H212a3.251,3.251,0,0,0,.7,1.7,2.035,2.035,0,0,0,1.5.6,2.476,2.476,0,0,0,2.1-1.1l1,1a3.325,3.325,0,0,1-1.4,1.2A4.777,4.777,0,0,1,214.1,770.2Zm-.2-7.3a2.106,2.106,0,0,0-1.3.5,2.292,2.292,0,0,0-.6,1.5h3.6v-.1a1.978,1.978,0,0,0-.5-1.4A1.656,1.656,0,0,0,213.9,762.9Z" fill="#033c90"/>
        <path id="Path_5581" data-name="Path 5581" d="M226.4,767.4l1.3-5.8h1.9l-2.3,8.5h-1.6l-1.8-5.8-1.8,5.8h-1.6l-2.3-8.5h1.9l1.4,5.8,1.7-5.8h1.4Z" fill="#033c90"/>
        <path id="Path_5582" data-name="Path 5582" d="M239,767.5l2.9-8.9h2.2L240,770h-1.9L234,758.6h2.2Z" fill="#033c90"/>
        <path id="Path_5583" data-name="Path 5583" d="M248.6,770.2a4,4,0,0,1-2.9-1.1,4.426,4.426,0,0,1-1.1-3v-.2a5.932,5.932,0,0,1,.5-2.3,3.638,3.638,0,0,1,1.4-1.6,3.379,3.379,0,0,1,2-.6,3.534,3.534,0,0,1,2.7,1.1,4.265,4.265,0,0,1,.9,3.1v.8h-5.5a3.251,3.251,0,0,0,.7,1.7,2.035,2.035,0,0,0,1.5.6,2.476,2.476,0,0,0,2.1-1.1l1,1a3.325,3.325,0,0,1-1.4,1.2A4.058,4.058,0,0,1,248.6,770.2Zm-.2-7.3a2.106,2.106,0,0,0-1.3.5,2.292,2.292,0,0,0-.6,1.5h3.6v-.1a1.978,1.978,0,0,0-.5-1.4A1.656,1.656,0,0,0,248.4,762.9Z" fill="#033c90"/>
        <path id="Path_5584" data-name="Path 5584" d="M255.3,762.5a3.043,3.043,0,0,1,2.4-1.1c1.8,0,2.7,1,2.7,3.1V770h-1.9v-5.5c0-.6-.1-1-.4-1.2a1.82,1.82,0,0,0-1.1-.4,1.76,1.76,0,0,0-1.7,1v6h-1.9v-12h1.9v4.6Z" fill="#033c90"/>
        <path id="Path_5585" data-name="Path 5585" d="M262.3,759.3a.908.908,0,0,1,.3-.7,1.217,1.217,0,0,1,1.6,0,.967.967,0,0,1,0,1.4,1.217,1.217,0,0,1-1.6,0A.908.908,0,0,1,262.3,759.3Zm2,10.7h-1.9v-8.5h1.9Z" fill="#033c90"/>
        <path id="Path_5586" data-name="Path 5586" d="M269.9,768.6a1.594,1.594,0,0,0,1.2-.4,1.389,1.389,0,0,0,.5-1h1.8a2.976,2.976,0,0,1-.5,1.5,3.179,3.179,0,0,1-1.2,1.1,3.287,3.287,0,0,1-1.7.4,3.763,3.763,0,0,1-2.8-1.1,4.4,4.4,0,0,1-1-3.2v-.2a4.454,4.454,0,0,1,1-3.1,3.489,3.489,0,0,1,2.8-1.2,3.656,3.656,0,0,1,2.5.9,2.9,2.9,0,0,1,1,2.3h-1.8a1.707,1.707,0,0,0-1.7-1.7,1.513,1.513,0,0,0-1.4.7,3.677,3.677,0,0,0-.5,2v.3a4.064,4.064,0,0,0,.5,2.1A1.286,1.286,0,0,0,269.9,768.6Z" fill="#033c90"/>
        <path id="Path_5587" data-name="Path 5587" d="M276.8,770h-1.9V758h1.9Z" fill="#033c90"/>
        <path id="Path_5588" data-name="Path 5588" d="M282.6,770.2a4,4,0,0,1-2.9-1.1,4.248,4.248,0,0,1-1.1-3v-.2a5.932,5.932,0,0,1,.5-2.3,3.638,3.638,0,0,1,1.4-1.6,3.379,3.379,0,0,1,2-.6,3.534,3.534,0,0,1,2.7,1.1,4.264,4.264,0,0,1,.9,3.1v.8h-5.5a3.25,3.25,0,0,0,.7,1.7,1.717,1.717,0,0,0,1.5.6,2.476,2.476,0,0,0,2.1-1.1l1,1a3.325,3.325,0,0,1-1.4,1.2A4.058,4.058,0,0,1,282.6,770.2Zm-.2-7.3a2.106,2.106,0,0,0-1.3.5,2.292,2.292,0,0,0-.6,1.5h3.6v-.1a1.978,1.978,0,0,0-.5-1.4A1.656,1.656,0,0,0,282.4,762.9Z" fill="#033c90"/>
      </g>
    </g>
  </g>
</svg>
