<svg xmlns="http://www.w3.org/2000/svg" xml:space="preserve" id="Layer_1" x="0" y="0" viewBox="0 0 194 48" fill="none"><g id="Group_4131" transform="translate(-166.022 -753)"><g id="Group_4129" transform="translate(0 10)"><circle id="Ellipse_128" cx="336" cy="767" r="24" fill="#0a4daa"/><g id="Group_4132" transform="translate(37.822 52.822)"><path id="Union_4" fill="#fddd01" d="m297.2 725.2-.2-.3v-.5l-.4-.1-.4-.1-.4-.1-.4-.1h5.6l-.4.1-.4.1-.4.1-.4.1v.5l-.2.3zm4-.7-.1-.3-.1-.1h2.1l-1.6.7zm-7.9-.4-.3-.1-.1-.4.1-.3v-.1l-.4-.2-.3-.2-.3-.2-.3-.2-.1.1-.3.3-.4.1-.2-.2-1.1-1.1-.2-.2.1-.4.3-.3.1-.1-.2-.3-.2-.3-.2-.3-.2-.3h6.6l.2.1 2.2.4h8.6l-.1.1-.2.3-.2.3.4.4.1.4-.2.2-.8.8h-1.1l-.3.2-.3.2-.3.2-.3.2v.1l.1.3-.1.4-.3.1h-7.7l-.2.5-.3.2zm11.6-1.5-.4-.4h1.1l-.2.2-.2.2zm-6.7-2.9 2.2-.4 1.8-1.2 1.2-1.8.4-2.2-.4-2.2-1.2-1.8-1.8-1.2-2.2-.4-2.2.4-.2.1-1.6 1.1-1.2 1.8-.4 2.2.4 2.2 1.2 1.8 1.6 1.1h-6.6l-.1.1-.3.1-.4-.1-.1-.2-.6-1.4-.1-.2.2-.3.3-.1h.1l-.1-.4-.1-.4-.1-.4-.1-.4h-.5l-.3-.2v-2l.3-.2h.5l.1-.4.1-.4.1-.4.1-.4-.5-.2-.2-.3.1-.2.6-1.4.1-.2.4-.1.4.2.2-.3.2-.3.2-.3.2-.3-.1-.1-.3-.3-.1-.4.2-.2 1.2-1.2.4.1.3.3.1.1.3-.2.3-.2.3-.2.3-.2v-.1l-.1-.3.1-.4.2-.1 1.6-.7.3.2.2.5.4-.1.4-.1.4-.1.4-.1v-.5l.2-.3h2l.2.3v.5l.4.1.4.1.4.1.4.1.2-.5.3-.2 1.6.7.2.1.1.4-.1.3v.1l.3.2.3.2.3.2.3.2.4-.4.4-.1.4.4 1 1-.1.4-.4.4.2.3.2.3.1.1.1.2.2.3h.9v.1l.6 1.4.1.2-.2.3-.5.2.1.4.1.4.1.4.1.4h.5l.3.2v2l-.3.2h-.5l-.1.4-.1.4-.1.4-.1.4h.1l.3.1.2.3-.1.2-.6 1.4v.1h-.9l-.2.3-.1.2zm9.1-.4-.1-.1h.9v.1l-.4.1z" fill="#fddd01"/><circle id="Ellipse_2" cx="298.2" cy="714.2" r="3.1" fill="#fddd01"/></g></g><g id="Group_4130" transform="translate(0 3)"><path id="Path_5170" d="M184.5 756h96.4c10.2 0 25.1 16.5 25.1 16.5S291.1 789 280.9 789h-96.4c-10.2 0-18.5-7.4-18.5-16.5s8.3-16.5 18.5-16.5" fill="#fddd01"/><path d="M185.8 773.3c-.1 1.2-.6 2.2-1.3 2.8s-1.8 1-3.1 1q-1.35 0-2.4-.6c-.7-.4-1.2-1-1.6-1.8s-.6-1.7-.6-2.8v-1.1c0-1.1.2-2 .6-2.8s.9-1.4 1.6-1.9 1.5-.7 2.5-.7c1.3 0 2.3.3 3 1s1.2 1.6 1.3 2.9h-2c-.1-.8-.3-1.4-.7-1.8s-.9-.5-1.7-.5c-.9 0-1.5.3-2 .9s-.7 1.5-.7 2.8v1c0 1.2.2 2.2.7 2.8.4.6 1.1 1 1.9 1s1.4-.2 1.8-.5.6-.9.7-1.7zM191.8 770.3c-.2 0-.5-.1-.8-.1-.9 0-1.5.3-1.8 1v5.8h-1.9v-8.5h1.8v.9c.5-.7 1.1-1.1 1.9-1.1.3 0 .5 0 .7.1zM196.6 777.2c-1.2 0-2.2-.4-2.9-1.1-.7-.8-1.1-1.8-1.1-3v-.2c0-.8.2-1.6.5-2.3s.8-1.2 1.4-1.6 1.2-.6 2-.6c1.2 0 2 .4 2.7 1.1.6.7.9 1.8.9 3.1v.8h-5.5c.1.7.3 1.2.7 1.7q.6.6 1.5.6c.9 0 1.6-.4 2.1-1.1l1 1c-.3.5-.8.9-1.4 1.2-.5.2-1.2.4-1.9.4m-.2-7.3c-.5 0-.9.2-1.3.5s-.5.9-.6 1.5h3.6v-.1c0-.6-.2-1.1-.5-1.4s-.7-.5-1.2-.5M206.5 777c-.1-.2-.2-.4-.2-.8-.6.6-1.3.9-2.2.9-.8 0-1.5-.2-2.1-.7-.5-.5-.8-1.1-.8-1.8 0-.9.3-1.6 1-2.1s1.6-.7 2.9-.7h1.2v-.6c0-.4-.1-.8-.4-1.1-.2-.3-.6-.4-1.1-.4-.4 0-.8.1-1.1.3s-.4.5-.4.8h-1.9c0-.5.2-.9.5-1.3s.7-.7 1.3-.9q.75-.3 1.8-.3c1 0 1.8.2 2.4.7q.9.75.9 2.1v3.8q0 1.2.3 1.8v.1h-2.1zm-2.1-1.4c.4 0 .7-.1 1.1-.3.3-.2.6-.4.7-.7V773h-1c-.7 0-1.2.1-1.6.4-.4.2-.5.6-.5 1s.1.7.4.9.5.3.9.3M212.5 766.5v2.1h1.5v1.4h-1.5v4.7c0 .3.1.6.2.7s.4.2.7.2c.2 0 .4 0 .7-.1v1.5c-.4.1-.8.2-1.2.2-1.5 0-2.2-.8-2.2-2.4V770h-1.4v-1.4h1.4v-2.1zM219.2 777.2c-1.2 0-2.2-.4-2.9-1.1-.7-.8-1.1-1.8-1.1-3v-.2c0-.8.2-1.6.5-2.3s.8-1.2 1.4-1.6 1.2-.6 2-.6c1.2 0 2 .4 2.7 1.1.6.7.9 1.8.9 3.1v.8H217c.1.7.3 1.2.7 1.7q.6.6 1.5.6c.9 0 1.6-.4 2.1-1.1l1 1c-.3.5-.8.9-1.4 1.2-.4.2-1 .4-1.7.4m-.2-7.3c-.5 0-.9.2-1.3.5s-.5.9-.6 1.5h3.6v-.1c0-.6-.2-1.1-.5-1.4s-.7-.5-1.2-.5M237.2 777h-2l-5.1-8.1v8.1h-2v-11.4h2l5.1 8.1v-8.1h2zM243.1 777.2c-1.2 0-2.2-.4-2.9-1.1-.7-.8-1.1-1.8-1.1-3v-.2c0-.8.2-1.6.5-2.3s.8-1.2 1.4-1.6 1.2-.6 2-.6c1.2 0 2 .4 2.7 1.1.6.7.9 1.8.9 3.1v.8H241c.1.7.3 1.2.7 1.7q.6.6 1.5.6c.9 0 1.6-.4 2.1-1.1l1 1c-.3.5-.8.9-1.4 1.2-.5.2-1.1.4-1.8.4m-.2-7.3c-.5 0-.9.2-1.3.5s-.5.9-.6 1.5h3.6v-.1c0-.6-.2-1.1-.5-1.4s-.7-.5-1.2-.5M255.4 774.4l1.3-5.8h1.9l-2.3 8.5h-1.6l-1.8-5.8-1.8 5.8h-1.6l-2.3-8.5h1.9l1.4 5.8 1.7-5.8h1.4zM271.8 767.2h-3.5v9.8h-2v-9.8h-3.5v-1.6h9zM273.1 766.3c0-.3.1-.5.3-.7s.4-.3.8-.3.6.1.8.3.3.4.3.7-.1.5-.3.7-.5.3-.8.3-.6-.1-.8-.3-.3-.4-.3-.7m2 10.7h-1.9v-8.5h1.9zM281.6 770.3c-.2 0-.5-.1-.8-.1-.9 0-1.5.3-1.8 1v5.8h-1.9v-8.5h1.8v.9c.5-.7 1.1-1.1 1.9-1.1.3 0 .5 0 .7.1zM286.4 777.2c-1.2 0-2.2-.4-2.9-1.1s-1.1-1.8-1.1-3v-.2c0-.8.2-1.6.5-2.3s.8-1.2 1.4-1.6 1.2-.6 2-.6c1.2 0 2 .4 2.7 1.1s.9 1.8.9 3.1v.8h-5.5c.1.7.3 1.2.7 1.7s.9.6 1.5.6c.9 0 1.6-.4 2.1-1.1l1 1c-.3.5-.8.9-1.4 1.2s-1.2.4-1.9.4m-.3-7.3c-.5 0-.9.2-1.3.5s-.5.9-.6 1.5h3.6v-.1c0-.6-.2-1.1-.5-1.4s-.6-.5-1.2-.5" fill="#033c90"/></g><g id="Group_4133" transform="translate(4.67 1.67)"><g id="Union_38"><path d="M341.33 773.13c-1.1 0-2-.9-2-2v-1.8h-1.7c-1.1 0-2-.9-2-2s.9-2 2-2h1.7v-1.7c0-1.1.9-2 2-2s2 .9 2 2v1.7h1.7c1.1 0 2 .9 2 2s-.9 2-2 2h-1.7v1.8c0 1.1-.9 2-2 2" fill="#fddd01"/><path d="M341.33 772.33c.7 0 1.3-.6 1.3-1.3v-2.4h2.5c.6 0 1.2-.6 1.2-1.3s-.6-1.2-1.3-1.2h-2.4v-2.5c0-.7-.6-1.3-1.3-1.3s-1.2.6-1.2 1.3v2.5h-2.5c-.7 0-1.3.5-1.3 1.2s.6 1.3 1.3 1.3h2.5v2.5c0 .6.5 1.2 1.2 1.2m0 1.5c-1.5 0-2.8-1.2-2.8-2.8v-1h-1c-1.5 0-2.8-1.2-2.8-2.8s1.2-2.8 2.8-2.8h1v-1c0-1.5 1.2-2.8 2.8-2.8s2.8 1.2 2.8 2.8v1h1c1.5 0 2.8 1.2 2.8 2.8s-1.2 2.8-2.8 2.8h-1v1c0 1.6-1.3 2.8-2.8 2.8" fill="#0a4daa"/></g></g></g></svg>
