<svg xmlns="http://www.w3.org/2000/svg" width="39" height="39" viewBox="0 0 39 39">
  <g id="Component_54_1" data-name="Component 54 – 1" transform="translate(0.5 0.5)">
    <path id="Union_4" data-name="Union 4" d="M17.276,38l-.359-.513v-.859l-.7-.1-.686-.13-.675-.143-.665-.173h9.627l-.665.173-.684.143-.688.13-.686.1v.859L20.741,38Zm6.874-1.133-.242-.588-.088-.2h3.6l-2.744,1.133Zm-13.619-.808-.4-.162-.13-.62.25-.59.077-.194-.6-.361-.588-.38-.564-.391-.558-.425-.139.152-.457.457-.622.12-.3-.306-1.832-1.84L4.345,31.2l.12-.611.449-.457.152-.152-.415-.556-.4-.566-.38-.588-.361-.6h11.48l.274.184,3.734.752H33.926l-.162.25-.4.566-.423.556.609.609.12.611-.316.314-1.415,1.417H29.983l-.556.425-.566.391-.588.38-.6.361.085.194.239.59-.13.62-.46.184H14.192l-.338.784-.524.348ZM30.6,33.546l-.611-.611h1.949l-.415.415-.3.316Zm-11.6-4.937,3.745-.752L25.8,25.788l2.056-3.048.752-3.747-.752-3.736L25.8,12.208,22.739,10.15l-3.745-.761h0l-3.734.763L15,10.325h0l-2.8,1.883-2.058,3.05-.752,3.736.752,3.747L12.2,25.788l2.787,1.885H3.507l-.186.088L2.736,28l-.622-.13-.173-.415L.96,25.08l-.173-.412.348-.524.588-.25.2-.077-.175-.665-.154-.684-.12-.688-.1-.7H.524L0,20.735V17.273l.524-.359h.849l.1-.7.12-.688.154-.673.175-.665-.784-.338L.787,13.33l.173-.415.981-2.385.173-.412L2.736,10l.769.327.361-.6.38-.59.4-.564.415-.556-.152-.152-.449-.46-.118-.62.316-.306L6.795,4.347l.622.107.457.46.141.152.558-.425.564-.393.588-.38.6-.359-.077-.186L10,2.734l.13-.609.4-.186,2.8-1.154.524.348.338.784.665-.173.675-.154.686-.12.7-.1V.513L17.276,0h3.463L21.1.513v.859l.684.1.688.12.675.154.675.173h0l.325-.782.522-.348,2.74,1.131h0l.056.021.4.186.13.609-.239.588-.085.186.6.359.588.38.566.393.556.425h0l.609-.609.62-.109.72.718h0l1.731,1.72-.12.62-.609.611.423.556.4.564.162.252h0l.205.338.359.6h1.483l.085.207.992,2.383.175.415-.351.521-.793.34.173.663.152.675.122.686.1.7h.851l.524.359v3.462l-.524.348h-.851l-.1.7-.122.684-.152.688-.173.663.194.077.6.25.351.524-.175.415-.992,2.372-.085.218H34.49l-.359.6-.205.338Zm15.684-.846-.184-.088h1.479l-.075.2L35.277,28Z" fill="#0055a5" stroke="rgba(0,0,0,0)" stroke-miterlimit="10" stroke-width="1"/>
    <circle id="Ellipse_2" data-name="Ellipse 2" cx="5.225" cy="5.225" r="5.225" transform="translate(13.773 13.773)" fill="#0055a5"/>
  </g>
</svg>
