<svg xmlns="http://www.w3.org/2000/svg" width="34.451" height="34.452" viewBox="0 0 34.451 34.452"><defs><style>.a{fill:#ffffff;}</style></defs><g transform="translate(-315.955 -183.782)"><path class="a" d="M405.329,277.019a3.862,3.862,0,1,1,3.862-3.862,3.866,3.866,0,0,1-3.862,3.862m0-7.1a3.237,3.237,0,1,0,3.237,3.237,3.24,3.24,0,0,0-3.237-3.237" transform="translate(-72.148 -72.149)"/><path class="a" d="M414.458,284.458a2.171,2.171,0,1,1,2.171-2.171,2.173,2.173,0,0,1-2.171,2.171m0-3.716A1.546,1.546,0,1,0,416,282.287a1.548,1.548,0,0,0-1.546-1.546" transform="translate(-81.277 -81.279)"/><path class="a" d="M335.275,218.234l-.14-.166-.087-.1c-.072-.088-.175-.214-.3-.366-.067-.085-.128-.163-.193-.248s-.137-.182-.208-.279-.143-.2-.215-.3-.145-.21-.215-.316-.133-.2-.2-.3c-.365.013-.725.013-1.09,0-.064.1-.129.2-.2.3s-.143.212-.215.315-.145.2-.216.3-.141.191-.208.28-.123.16-.18.232l-.012.015c-.12.152-.223.279-.3.367l-.087.1-.141.166-.426-.059-.159-.023-.282-.047c-.294-.05-.88-.161-1.529-.335s-1.21-.368-1.489-.47l-.819-.324-.061-.343c-.02-.114-.046-.276-.074-.469-.014-.1-.028-.2-.043-.309s-.028-.228-.041-.348-.025-.243-.036-.367-.02-.254-.029-.381-.015-.24-.02-.357c-.321-.17-.637-.353-.945-.546q-.156.08-.318.16c-.2.1-.414.2-.681.317-.22.1-.423.18-.61.255s-.335.13-.442.169l-.328.119-.51-.4c-.057-.046-.118-.1-.183-.151l-.074-.062c-.059-.05-.121-.1-.184-.157l-.341-.3-.547-.522-.3-.3-.534-.587-.154-.181-.069-.082c-.053-.061-.1-.121-.146-.177l-.4-.515.119-.327c.04-.108.1-.261.17-.443s.157-.388.255-.61c.119-.267.219-.484.317-.681q.08-.162.16-.318c-.193-.308-.376-.624-.546-.945-.117-.006-.237-.013-.357-.02s-.257-.018-.382-.029-.247-.023-.367-.036-.237-.026-.347-.04l-.31-.043c-.192-.028-.355-.054-.467-.073l-.345-.062-.323-.816c-.1-.282-.3-.847-.472-1.494s-.285-1.234-.335-1.525l-.047-.283c-.01-.059-.017-.113-.023-.16l-.059-.425.166-.141.1-.087c.088-.073.214-.176.366-.3.082-.064.162-.127.248-.193s.182-.137.279-.208.2-.143.3-.215.211-.145.316-.215.2-.133.3-.2c-.006-.182-.01-.365-.01-.545s0-.363.01-.545c-.1-.063-.2-.129-.3-.2s-.212-.143-.315-.215-.2-.145-.3-.216-.191-.141-.279-.208-.163-.125-.236-.183c-.164-.13-.29-.233-.379-.305l-.1-.087-.165-.141.059-.425c.007-.048.014-.1.023-.159l.047-.283c.05-.293.161-.88.335-1.528s.368-1.21.47-1.489l.324-.82.342-.061c.114-.02.277-.046.469-.074l.309-.043c.111-.014.228-.027.348-.04s.243-.025.368-.036.254-.02.381-.029.24-.015.357-.02c.17-.321.353-.637.546-.945q-.08-.156-.16-.318c-.1-.2-.2-.414-.317-.681-.1-.221-.181-.424-.255-.61s-.13-.335-.169-.442l-.119-.328.4-.513c.045-.056.094-.117.148-.18l.066-.078c.049-.058.1-.118.154-.18l.3-.341.522-.547.3-.3.587-.534.183-.156.079-.067c.062-.053.122-.1.178-.147l.513-.4.327.119c.108.04.261.1.443.17s.388.157.61.255c.267.119.484.22.681.317q.162.08.318.16c.308-.193.624-.376.945-.546.006-.117.012-.237.02-.357s.017-.257.029-.381.023-.248.036-.367.026-.237.041-.347.029-.214.043-.31c.028-.193.054-.355.073-.467l.061-.344.816-.323c.283-.1.848-.3,1.494-.472s1.234-.285,1.525-.335l.284-.047c.059-.01.112-.017.16-.023l.426-.059.141.166.087.1c.073.088.176.214.3.366.067.086.129.164.193.249s.137.182.207.279.143.2.215.3.145.211.215.316.133.2.2.3c.365-.013.725-.013,1.09,0,.064-.1.129-.2.2-.3s.143-.212.215-.315.145-.2.216-.3.141-.191.208-.279.128-.166.187-.241c.126-.159.229-.285.3-.374l.087-.1.14-.166.426.06.159.023.283.047c.293.051.879.161,1.528.335s1.21.368,1.489.47l.819.324.061.343c.02.114.046.276.074.469.014.1.028.2.043.309s.028.228.041.347.025.243.036.368.02.254.029.381.015.24.02.357c.321.17.637.353.945.546q.156-.08.318-.16c.2-.1.414-.2.681-.317.222-.1.433-.184.61-.255s.335-.13.442-.169l.328-.119.513.4c.056.045.116.094.179.148l.08.068c.057.048.117.1.178.152l.284.252.6.575.3.3.279.3.255.287c.057.066.11.128.159.187l.064.075c.054.063.1.124.149.181l.4.51-.119.327c-.04.108-.1.261-.17.443s-.158.391-.255.61c-.119.267-.219.483-.317.681q-.08.162-.16.318c.193.308.376.624.546.945.118.006.237.012.357.02s.257.017.382.029.247.023.367.036.237.026.347.04l.31.043c.193.028.355.054.467.073l.344.061.323.816c.1.283.3.847.472,1.494s.285,1.233.335,1.525l.047.284c.01.059.017.113.023.16l.059.425-.166.141-.1.087c-.088.073-.214.175-.366.3l-.016.013c-.072.057-.149.117-.233.18s-.182.137-.279.207-.2.143-.3.215-.211.145-.316.216h0c-.1.067-.2.132-.3.2.006.183.01.365.01.545s0,.363-.01.545c.1.064.2.129.3.2s.212.143.315.215.2.145.3.216.191.141.28.208.163.126.237.183c.163.129.29.232.378.3l.1.087.166.141-.059.425c-.007.048-.014.1-.023.159l-.047.282c-.051.294-.161.88-.335,1.529s-.368,1.21-.47,1.489l-.324.819-.343.061c-.114.02-.276.046-.469.074l-.309.043c-.111.014-.228.028-.348.041s-.243.025-.368.036-.254.02-.381.029l-.357.02c-.17.321-.353.637-.546.945q.08.156.16.318c.1.2.2.414.317.681.1.22.18.423.255.61s.13.335.169.442l.119.328-.4.512c-.045.056-.094.117-.149.181l-.064.076c-.049.058-.1.119-.155.182l-.252.284-.575.6-.3.3-.319.3-.268.238-.185.157-.078.065c-.063.054-.124.1-.181.149l-.51.4-.327-.119c-.108-.04-.261-.1-.443-.17s-.391-.158-.61-.255c-.267-.118-.483-.219-.681-.317q-.162-.08-.318-.16c-.307.193-.624.376-.945.546-.006.117-.012.237-.02.357s-.018.257-.029.382-.023.247-.036.367-.026.237-.04.347-.029.214-.043.31c-.028.192-.054.355-.073.467l-.062.345-.816.322c-.283.1-.847.3-1.494.472s-1.234.285-1.525.335l-.284.047-.16.023Zm-8.338-1.707.483.187c.265.1.81.287,1.432.452s1.19.274,1.471.323l.28.046.143.021.085.012h0c.071-.086.171-.209.288-.357l.012-.015c.054-.069.112-.143.172-.222s.133-.177.2-.272.139-.191.208-.291.139-.2.207-.3.135-.2.2-.305l.083-.131.1-.156.183.008c.467.022.93.022,1.4,0l.183-.008.1.156.083.131c.065.1.132.2.2.306s.138.2.208.3.139.2.208.29.136.185.2.271.121.157.176.227c.125.158.225.281.3.366h0l.085-.012.144-.021.281-.046c.279-.048.843-.154,1.468-.322s1.168-.355,1.437-.454l.48-.189c.018-.107.043-.264.071-.449.014-.093.027-.194.041-.3s.026-.219.039-.334.024-.235.035-.356.02-.245.028-.366.015-.245.02-.365q0-.078.006-.154l.006-.184.163-.084c.413-.213.819-.447,1.208-.7l.154-.1.162.085c.15.079.305.158.464.237.19.094.4.191.658.306.21.093.408.174.589.247s.321.125.424.162h0l.228-.183c.052-.041.108-.087.166-.137l.081-.068.175-.149.279-.248.581-.555.285-.292.277-.3.237-.268c.05-.058.1-.117.147-.173l.067-.079c.051-.059.1-.115.137-.166l.184-.23,0,0c-.037-.1-.092-.248-.162-.423s-.153-.379-.247-.59c-.115-.259-.212-.468-.306-.658-.079-.159-.158-.315-.237-.464l-.085-.162.1-.154c.251-.389.486-.8.7-1.208l.084-.163.184-.006.154-.006c.12-.006.243-.012.366-.02s.245-.017.365-.028.241-.023.357-.035.228-.025.335-.039l.3-.041c.186-.027.342-.052.451-.071h0l.187-.483c.1-.266.287-.81.452-1.432s.274-1.19.323-1.471l.046-.28c.008-.052.015-.1.021-.143l.012-.085h0c-.086-.071-.209-.171-.357-.288-.081-.064-.156-.123-.238-.184s-.177-.133-.271-.2-.191-.139-.291-.208-.2-.139-.3-.207-.2-.135-.306-.2l-.131-.083-.156-.1.009-.183c.011-.233.017-.468.017-.7s-.006-.465-.017-.7l-.009-.183.156-.1.131-.082c.1-.065.2-.132.306-.2s.2-.138.3-.208.2-.139.29-.208.185-.136.271-.2.153-.118.223-.173l.015-.012c.147-.116.27-.216.356-.287h0l-.012-.085c-.006-.043-.013-.092-.021-.144l-.046-.281c-.048-.279-.154-.843-.322-1.468s-.355-1.168-.454-1.437l-.19-.48c-.107-.018-.263-.043-.449-.07l-.3-.041c-.105-.013-.218-.026-.334-.039s-.235-.024-.356-.035-.244-.019-.366-.027-.245-.015-.365-.021l-.155-.006-.183-.006-.084-.163c-.212-.412-.447-.819-.7-1.208l-.1-.154.085-.161c.079-.15.158-.306.237-.465.094-.189.191-.4.306-.657.093-.21.173-.407.246-.589s.125-.321.162-.424v0l-.183-.228c-.041-.052-.087-.108-.137-.167l-.066-.078c-.048-.057-.1-.117-.151-.178l-.29-.325-.512-.536-.292-.285-.566-.514-.169-.144-.083-.071c-.059-.051-.114-.095-.165-.136l-.231-.186-.005,0c-.1.037-.248.092-.423.162s-.377.152-.59.247c-.259.115-.468.212-.658.306-.159.079-.314.158-.464.237l-.162.085-.154-.1c-.389-.251-.8-.486-1.208-.7l-.163-.084-.006-.184q0-.077-.006-.154c-.006-.12-.013-.243-.02-.366s-.017-.246-.028-.365-.023-.241-.035-.357-.026-.228-.039-.335-.028-.206-.041-.3c-.027-.186-.052-.342-.071-.451v0l-.483-.187c-.266-.1-.81-.287-1.432-.452s-1.19-.274-1.471-.323l-.28-.046-.143-.021-.085-.012h0c-.071.086-.171.209-.288.357-.061.078-.121.155-.184.238s-.133.177-.2.271-.139.192-.209.291-.138.2-.207.3-.135.2-.2.306l-.083.131-.1.155-.183-.009q-.7-.033-1.4,0l-.183.009-.1-.155-.083-.131c-.065-.1-.132-.2-.2-.306s-.138-.2-.208-.3-.139-.2-.208-.289-.136-.185-.2-.271-.12-.156-.176-.226c-.125-.159-.225-.282-.3-.367h0l-.085.012-.144.021-.281.047c-.279.048-.843.154-1.468.322s-1.168.355-1.437.454l-.48.19c-.018.107-.043.263-.07.449-.014.093-.028.194-.041.3s-.026.218-.039.334-.024.236-.035.356-.019.244-.028.366-.015.245-.021.365q0,.078-.006.154l-.006.183-.163.084c-.412.212-.819.447-1.208.7l-.154.1L325,188.8c-.15-.079-.305-.158-.465-.237-.189-.093-.4-.191-.658-.306-.212-.094-.409-.174-.589-.246s-.321-.125-.424-.163h0l-.231.185c-.051.041-.106.085-.164.135l-.083.07-.174.148-.324.29-.648.627-.531.567-.157.177-.146.171-.068.081c-.051.059-.1.114-.136.165l-.185.23,0,0c.037.1.092.249.162.423s.153.378.247.59c.115.259.212.468.306.658.079.159.158.315.237.464l.085.161-.1.154c-.251.39-.486.8-.7,1.208l-.084.163-.183.006-.155.006c-.12.005-.242.012-.365.02s-.246.017-.366.027-.24.023-.356.035-.229.025-.335.039l-.3.041c-.186.027-.342.052-.451.071h0l-.187.483c-.1.265-.287.809-.452,1.432s-.274,1.19-.323,1.471l-.046.28c-.008.052-.015.1-.021.143l-.012.085h0c.086.071.208.171.356.287.082.064.156.123.238.184s.177.133.271.2.192.139.291.209.2.139.3.207.2.136.306.2l.131.082.156.1-.009.183c-.011.233-.016.468-.016.7s.006.465.016.7l.009.183-.156.1-.131.083c-.1.065-.2.132-.306.2s-.2.138-.3.208-.2.139-.289.208-.185.136-.271.2-.16.123-.232.18c-.154.121-.277.222-.363.292h0l.012.085c.006.043.013.092.021.144l.047.281c.048.279.154.843.322,1.468s.355,1.168.454,1.437l.189.48c.107.018.263.043.449.071l.3.041c.105.013.218.026.334.039s.235.024.356.035.245.02.367.028.245.015.365.02l.154.006.184.006.084.163c.212.412.447.819.7,1.208l.1.154-.085.161c-.079.15-.158.306-.237.465-.094.19-.191.4-.306.658-.094.212-.174.409-.246.589s-.125.321-.163.424v0l.186.232c.041.051.085.105.134.162l.072.085.146.171.248.279.669.693.467.443.276.245.175.149.077.065c.06.052.116.1.168.138l.228.183.005,0c.1-.037.248-.092.423-.162s.379-.153.59-.247c.259-.115.468-.212.658-.306.159-.079.315-.158.464-.237l.162-.085.154.1c.389.251.8.486,1.208.7l.163.084.006.183q0,.077.006.154c.006.12.013.242.021.365s.017.246.028.366.023.241.035.357.026.228.039.335.028.206.041.3c.027.185.052.342.071.451Zm21.516-16.52h0Z" transform="translate(0 0)"/><path class="a" d="M382.106,258.1a8.163,8.163,0,1,1,5.772-2.391,8.11,8.11,0,0,1-5.772,2.391m0-15.7a7.538,7.538,0,1,0,5.33,2.208,7.489,7.489,0,0,0-5.33-2.208" transform="translate(-48.926 -48.926)"/><path class="a" d="M356.747,239.578a.312.312,0,0,1-.273-.16,11.124,11.124,0,0,1,13.369-15.9.313.313,0,1,1-.205.591,10.5,10.5,0,0,0-12.618,15,.313.313,0,0,1-.273.465" transform="translate(-33.01 -33.011)"/><path class="a" d="M407.949,359.363a11.159,11.159,0,0,1-3.152-.451.313.313,0,0,1,.176-.6,10.577,10.577,0,0,0,3.542.411.313.313,0,0,1,.033.624c-.2.011-.4.016-.6.016" transform="translate(-74.769 -147.243)"/><path class="a" d="M442.682,303.055a.313.313,0,0,1-.082-.614,10.5,10.5,0,0,0,7.725-10.121.313.313,0,1,1,.625,0,11.126,11.126,0,0,1-8.187,10.725.309.309,0,0,1-.082.011" transform="translate(-106.659 -91.312)"/><path class="a" d="M462.718,235.339a.311.311,0,0,1-.221-.092,10.6,10.6,0,0,0-1.913-1.517.313.313,0,0,1,.329-.532,11.217,11.217,0,0,1,2.026,1.607.313.313,0,0,1-.221.534" transform="translate(-121.901 -41.655)"/><path class="a" d="M419.5,252.32a1.244,1.244,0,1,1,1.244-1.244,1.246,1.246,0,0,1-1.244,1.244m0-1.863a.619.619,0,1,0,.619.619.62.62,0,0,0-.619-.619" transform="translate(-86.315 -55.727)"/><path class="a" d="M419.5,324.748a1.244,1.244,0,1,1,1.244-1.244,1.246,1.246,0,0,1-1.244,1.244m0-1.863a.619.619,0,1,0,.619.619.62.62,0,0,0-.619-.619" transform="translate(-86.315 -116.836)"/><path class="a" d="M455.716,288.533a1.244,1.244,0,1,1,1.244-1.244,1.246,1.246,0,0,1-1.244,1.244m0-1.864a.619.619,0,1,0,.619.619.62.62,0,0,0-.619-.619" transform="translate(-116.87 -86.281)"/><path class="a" d="M383.288,288.533a1.244,1.244,0,1,1,1.244-1.244,1.246,1.246,0,0,1-1.244,1.244m0-1.864a.619.619,0,1,0,.619.619.62.62,0,0,0-.619-.619" transform="translate(-55.761 -86.281)"/><path class="a" d="M445.113,314.143a1.241,1.241,0,0,1-.88-.364h0a1.246,1.246,0,1,1,.88.364m-.438-.806a.619.619,0,1,0,0-.876A.62.62,0,0,0,444.675,313.338Z" transform="translate(-107.924 -107.89)"/><path class="a" d="M393.9,262.93a1.236,1.236,0,0,1-.88-.364h0a1.244,1.244,0,1,1,.88.365m0-1.863a.619.619,0,0,0-.438,1.057h0a.634.634,0,0,0,.876,0,.619.619,0,0,0-.438-1.057" transform="translate(-64.71 -64.679)"/><path class="a" d="M393.9,314.143a1.244,1.244,0,1,1,.88-.364,1.24,1.24,0,0,1-.88.364m0-1.863a.618.618,0,0,0-.438.181h0a.62.62,0,1,0,.438-.181" transform="translate(-64.71 -107.89)"/><path class="a" d="M445.113,262.93a1.244,1.244,0,1,1,.88-.364,1.237,1.237,0,0,1-.88.364m0-1.863a.619.619,0,0,0-.438,1.057.634.634,0,0,0,.875,0,.619.619,0,0,0-.438-1.057" transform="translate(-107.924 -64.68)"/></g></svg>