<svg xmlns="http://www.w3.org/2000/svg" width="58.629" height="33.077" viewBox="0 0 58.629 33.077"><defs><style>.a{opacity:0.8;}.b{fill:#ffffff;}</style></defs><g class="a" transform="translate(-1279.556 -1414.071)"><path class="b" d="M1375.158,1546.805a1.8,1.8,0,1,1,1.8-1.8,1.8,1.8,0,0,1-1.8,1.8m0-3.233a1.437,1.437,0,1,0,1.437,1.437,1.438,1.438,0,0,0-1.437-1.437" transform="translate(-79.47 -105.938)"/><path class="b" d="M1379.5,1548.5a.846.846,0,1,0,.846.846.847.847,0,0,0-.846-.846" transform="translate(-83.807 -110.275)"/><path class="b" d="M1347.349,1524.414l-.183-.218c-.033-.04-.081-.1-.137-.169-.03-.039-.06-.076-.091-.117l-.1-.129-.1-.14q-.052-.075-.1-.148l-.024-.037c-.088,0-.177,0-.266,0l-.024.036c-.033.05-.067.1-.1.147s-.068.1-.1.141l-.1.13c-.029.038-.057.074-.084.109-.062.079-.11.138-.144.178l-.183.217-.519-.076c-.139-.024-.413-.076-.717-.157s-.566-.172-.7-.22l-.491-.2-.049-.273c-.01-.055-.022-.131-.035-.221-.007-.044-.013-.093-.02-.144s-.013-.107-.019-.163-.012-.113-.017-.171-.01-.119-.014-.179c0-.015,0-.03,0-.044-.078-.043-.155-.087-.23-.133l-.038.019c-.108.053-.215.1-.319.148s-.2.085-.285.119-.158.062-.209.08l-.262.1-.331-.259c-.027-.022-.056-.045-.087-.072l-.391-.348-.411-.421-.224-.257c-.027-.031-.052-.063-.075-.091l-.255-.327.094-.26c.019-.052.046-.124.08-.209s.073-.182.119-.285.1-.211.148-.318l.019-.038q-.069-.114-.133-.231l-.043,0-.18-.014-.171-.017-.162-.019-.145-.02c-.09-.013-.166-.025-.219-.034l-.275-.049-.194-.488c-.049-.134-.141-.4-.222-.7s-.133-.577-.157-.714l-.021-.13c-.005-.031-.009-.059-.012-.083l-.043-.307.217-.185c.041-.033.1-.081.17-.137l.016-.013.1-.077.13-.1.14-.1.148-.1.037-.024c0-.044,0-.088,0-.133s0-.089,0-.133l-.036-.024-.147-.1-.14-.1-.13-.1-.1-.074-.02-.016c-.072-.057-.13-.1-.172-.138l-.216-.184.043-.307c0-.024.007-.052.012-.081l.022-.13c.024-.139.076-.414.157-.717s.172-.566.22-.7l.2-.491.272-.049c.056-.009.131-.022.221-.035l.145-.02.163-.019.171-.017.179-.013.044,0c.043-.078.087-.155.133-.23l-.019-.038c-.053-.107-.1-.215-.148-.318s-.085-.2-.119-.285-.061-.157-.079-.208l-.095-.262.259-.331c.022-.027.046-.057.073-.088l.347-.39.555-.53.1-.082.027-.023c.031-.026.063-.052.091-.075l.324-.253.263.094c.051.019.122.045.207.079s.182.074.286.12.211.1.318.148l.038.019c.076-.046.153-.09.23-.133,0-.015,0-.029,0-.044,0-.06.008-.12.013-.178s.011-.116.017-.171.012-.111.019-.162.013-.1.02-.145c.013-.09.025-.166.034-.218l.049-.275.488-.195c.134-.049.4-.141.7-.222s.577-.133.714-.157l.13-.022.086-.012.3-.042.186.215c.035.042.082.1.138.171l.014.017.077.1.1.13.1.14c.034.049.068.1.1.148l.025.037c.088,0,.177,0,.266,0l.024-.037c.033-.05.067-.1.1-.147s.068-.1.1-.141l.1-.13c.027-.037.054-.071.079-.1l.011-.014c.056-.071.1-.13.138-.171l.186-.215.3.041.085.012.13.021c.139.024.413.075.718.158s.566.172.7.22l.491.2.049.273c.009.054.022.13.035.22.006.044.013.093.02.143s.013.107.019.163.012.114.017.172.009.119.013.178l0,.044c.078.043.155.087.23.133l.039-.019c.107-.053.215-.1.318-.148s.2-.085.285-.119.157-.061.207-.079l.263-.094.325.253c.029.023.061.049.094.077l.39.348.411.42.224.258c.025.029.049.059.071.087l.258.33-.095.261c-.019.051-.046.123-.08.208s-.073.181-.119.285-.1.212-.148.319l-.019.038c.046.076.09.153.133.23l.045,0,.178.013.171.017.163.019.145.02c.089.013.165.025.217.034l.276.049.195.488c.049.135.142.4.222.7s.133.577.157.714l.022.13c0,.029.008.055.011.078l.044.313-.217.183c-.04.033-.1.081-.17.137l-.021.016-.1.075-.129.1-.14.1-.147.1h0l-.036.024c0,.044,0,.088,0,.133s0,.089,0,.133l.037.025.146.1.141.1.13.1.1.078.015.011c.072.057.13.1.171.139l.217.182-.076.519c-.024.139-.075.413-.157.717s-.172.565-.22.7l-.2.492-.274.049c-.054.009-.13.022-.221.035l-.144.02-.161.019-.173.017-.177.014-.045,0q-.065.117-.133.231l.019.039c.053.107.1.215.148.318s.085.2.119.285.061.157.08.207l.1.261-.254.327c-.023.029-.048.06-.076.093l-.349.391-.42.411-.257.224c-.03.026-.059.049-.086.071l-.331.259-.262-.1c-.05-.018-.122-.045-.208-.08s-.182-.073-.285-.119-.211-.1-.318-.148l-.039-.019c-.076.046-.153.09-.23.133l0,.043c0,.06-.008.121-.014.18s-.011.115-.017.171-.012.111-.019.162-.014.1-.02.145c-.013.09-.025.166-.034.219l-.049.276-.487.193c-.135.05-.4.141-.7.222s-.578.133-.714.156Zm-.346-1.693.148.237.088.135c.03.046.061.091.092.135l.092.129.089.12.079.1.053.067.107-.018c.208-.036.445-.088.647-.142.276-.073.517-.157.636-.2l.1-.037c0-.025.008-.052.012-.081s.012-.086.018-.134.012-.1.017-.148.011-.1.015-.158.009-.109.012-.162.006-.109.009-.162l.009-.278.187-.1c.183-.094.362-.2.532-.308l.177-.114.186.1c.066.035.136.07.206.105.1.048.2.093.291.135s.183.078.261.109l.075.029.008-.007.07-.057.383-.343.36-.37.2-.234c.023-.027.043-.052.062-.075l0,0-.029-.075c-.031-.078-.068-.167-.109-.262s-.087-.193-.135-.291c-.035-.071-.07-.14-.105-.207l-.1-.186.114-.177c.11-.171.214-.35.307-.532l.1-.187.28-.01.161-.009.161-.012.159-.016.148-.017.132-.018.081-.012.035-.092c.046-.125.13-.366.2-.641.055-.2.107-.44.143-.651l.017-.1-.064-.051-.014-.011-.091-.071-.121-.09-.129-.092-.134-.091-.136-.089-.236-.147.01-.211c.005-.1.007-.2.007-.308s0-.205-.007-.307l-.01-.211.238-.148.134-.088.135-.093.129-.092.121-.09.085-.066.02-.016.063-.05-.018-.107c-.036-.208-.088-.446-.142-.647-.073-.276-.157-.517-.2-.636l-.037-.1-.081-.012-.132-.018-.148-.017-.159-.016c-.052-.005-.107-.009-.161-.012l-.161-.009-.279-.009-.1-.188c-.093-.181-.2-.36-.307-.532l-.114-.177.1-.186c.035-.067.07-.135.1-.206.048-.1.093-.2.135-.291s.078-.183.109-.261l.03-.075-.006-.008c-.017-.021-.036-.045-.057-.07l-.329-.369-.506-.483-.111-.094-.076-.063,0,0-.075.029c-.077.031-.166.067-.261.109s-.193.087-.292.136c-.071.035-.14.07-.206.105l-.186.1-.177-.114c-.171-.11-.35-.214-.532-.307l-.188-.1-.009-.278c0-.053-.006-.108-.009-.162s-.007-.108-.012-.161-.01-.107-.016-.159-.011-.1-.018-.148-.012-.091-.018-.132l-.012-.081-.1-.039c-.2-.073-.429-.146-.631-.2s-.44-.107-.651-.143l-.1-.017-.051.064-.081.1-.09.121-.093.129c-.03.043-.061.089-.091.134l-.089.136-.147.236-.211-.01c-.2-.01-.411-.01-.615,0l-.211.01-.147-.236c-.029-.045-.059-.091-.089-.136s-.061-.09-.092-.135l-.092-.128-.09-.121-.069-.089-.013-.017-.05-.063-.107.018c-.209.036-.446.088-.647.142s-.435.127-.636.2l-.1.037-.012.081c-.006.042-.012.087-.018.134s-.012.1-.017.147-.011.1-.016.159-.008.108-.012.161-.007.109-.009.162l-.01.279-.188.1c-.182.094-.361.2-.532.307l-.176.114-.186-.1c-.067-.035-.136-.07-.207-.105-.1-.049-.2-.094-.292-.136s-.184-.078-.261-.11l-.074-.029,0,0c-.023.019-.048.039-.074.061l-.031.026-.085.072-.383.357-.447.49c-.023.027-.042.05-.058.071l-.007.009.03.075c.031.077.067.166.109.261s.087.193.135.291c.035.071.07.14.1.206l.1.186-.114.177c-.111.172-.214.351-.307.532l-.1.189-.276.009-.163.009-.162.012-.159.016-.148.017-.132.018-.081.012-.039.1c-.073.2-.145.429-.2.631s-.107.439-.143.651l-.017.1.064.051.02.016.085.065.121.09.129.092.135.092.135.089.236.147-.01.211q-.007.153-.007.307t.007.308l.01.211-.236.147-.136.089-.136.092-.128.092-.121.09-.09.069-.016.012-.063.05.018.106c.036.209.088.446.142.648s.127.434.2.636l.037.1.08.012.133.018.149.018.156.015.163.012.161.009.276.01.1.187c.094.182.2.361.307.532l.114.177-.1.186c-.035.067-.07.136-.105.207-.049.1-.093.2-.136.291s-.078.184-.109.261l-.029.075,0,0c.018.023.038.048.06.074l.328.369.384.375.234.2.071.058.008.007.075-.03c.078-.031.167-.067.261-.109s.194-.087.291-.135c.07-.035.139-.07.206-.1l.186-.1.177.114c.171.11.35.214.532.308l.187.1.01.278c0,.053.005.107.009.162s.007.109.012.162.01.107.016.158.011.1.017.148.012.091.018.132l.012.081.1.039c.114.041.355.125.631.2.2.054.44.106.651.143l.1.017.051-.064.08-.1.09-.121.093-.13c.03-.043.061-.089.092-.134l.089-.136.147-.236.211.01c.2.01.411.01.615,0Zm6.437-6.84h0Zm-7.968-7.237h0Z" transform="translate(-50.796 -77.266)"/><path class="b" d="M1365.8,1539.5a3.845,3.845,0,1,1,2.719-1.126,3.819,3.819,0,0,1-2.719,1.126m0-7.151a3.306,3.306,0,1,0,2.338.969,3.284,3.284,0,0,0-2.338-.969m2.528,5.835h0Z" transform="translate(-70.116 -96.583)"/><path class="b" d="M1381.863,1536.927a.424.424,0,1,1-.424-.424.424.424,0,0,1,.424.424" transform="translate(-85.747 -100.433)"/><path class="b" d="M1381.863,1565.619a.424.424,0,1,1-.424-.424.424.424,0,0,1,.424.424" transform="translate(-85.747 -123.97)"/><path class="b" d="M1395.783,1551.7a.424.424,0,1,1,.424-.424.424.424,0,0,1-.424.424" transform="translate(-97.515 -112.201)"/><path class="b" d="M1367.092,1551.7a.424.424,0,1,1,.424-.424.425.425,0,0,1-.424.424" transform="translate(-73.978 -112.201)"/><path class="b" d="M1391.282,1561.716a.424.424,0,1,1,.6,0,.425.425,0,0,1-.6,0" transform="translate(-94.068 -120.522)"/><path class="b" d="M1370.994,1541.428a.424.424,0,1,1,.6,0,.425.425,0,0,1-.6,0" transform="translate(-77.425 -103.88)"/><path class="b" d="M1370.994,1561.117a.424.424,0,1,1,0,.6.424.424,0,0,1,0-.6" transform="translate(-77.425 -120.523)"/><path class="b" d="M1391.282,1540.829a.424.424,0,1,1,0,.6.424.424,0,0,1,0-.6" transform="translate(-94.068 -103.88)"/><path class="b" d="M1539.353,1546.383a1.69,1.69,0,1,1,1.69-1.69,1.693,1.693,0,0,1-1.69,1.69m0-3.021a1.331,1.331,0,1,0,1.331,1.331,1.333,1.333,0,0,0-1.331-1.331" transform="translate(-214.249 -105.765)"/><path class="b" d="M1543.459,1548.008a.791.791,0,1,0,.791.791.792.792,0,0,0-.791-.791" transform="translate(-218.356 -109.872)"/><path class="b" d="M1513.289,1525.4l-.177-.212c-.032-.039-.077-.094-.129-.16l-.011-.014c-.024-.03-.049-.062-.074-.1l-.09-.121-.094-.131c-.032-.046-.064-.093-.095-.139l-.016-.024h-.223l-.016.023c-.031.047-.063.094-.094.139s-.063.089-.094.131l-.091.123-.073.1-.011.014c-.052.066-.1.121-.128.159l-.168.2-.389-.038-.122-.02c-.13-.022-.388-.071-.671-.147s-.53-.161-.653-.206l-.471-.188-.048-.269c-.009-.052-.02-.122-.032-.207-.006-.042-.012-.088-.019-.135s-.012-.1-.018-.153-.011-.106-.016-.16-.009-.112-.013-.168l0-.028q-.1-.054-.194-.112l-.024.012c-.1.05-.2.1-.3.139s-.188.08-.267.112-.148.057-.2.075l-.256.093-.317-.247c-.027-.021-.056-.044-.086-.071l-.366-.326-.5-.521-.1-.115c-.024-.027-.046-.055-.067-.081l-.25-.32.093-.255c.018-.049.043-.116.075-.2s.069-.17.112-.267.089-.2.139-.3l.012-.025q-.057-.1-.112-.194l-.028,0-.168-.013-.16-.016-.151-.018-.137-.019c-.084-.012-.155-.023-.2-.032l-.27-.049-.186-.467c-.046-.126-.133-.374-.208-.658s-.125-.541-.147-.669l-.074-.5.213-.178c.038-.031.093-.076.16-.129l.109-.085.121-.09.132-.094.139-.095.023-.015c0-.037,0-.074,0-.112s0-.074,0-.112l-.023-.015-.139-.094-.132-.094-.122-.09-.105-.082c-.071-.056-.126-.1-.164-.133l-.2-.168.062-.51c.022-.13.071-.387.147-.672s.161-.531.206-.653l.188-.472.268-.048.207-.032.135-.019.153-.018.161-.016.167-.013.028,0q.054-.1.112-.194l-.012-.024c-.05-.1-.1-.2-.139-.3s-.08-.188-.112-.267-.057-.147-.074-.195l-.094-.257.249-.319c.021-.026.043-.054.069-.084l.325-.365.52-.5.116-.1.078-.064.323-.252.256.093c.049.018.116.043.2.075s.17.068.267.112.2.089.3.139l.025.012q.1-.057.194-.112l0-.028c0-.056.008-.113.013-.168s.01-.108.016-.16.012-.1.018-.152.013-.094.019-.136c.012-.084.024-.155.032-.2l.049-.271.468-.187c.125-.046.372-.132.658-.208s.541-.125.669-.147l.5-.075.178.213c.032.039.077.094.129.16l.011.014.074.1.09.121c.031.042.063.086.094.131s.064.093.095.139l.016.024q.112,0,.223,0l.016-.024c.031-.046.062-.093.094-.138l.094-.132.091-.123c.025-.033.05-.065.074-.1l.011-.014c.052-.066.1-.121.129-.16l.038-.045.288.217-.276-.231.128-.153.5.074c.13.022.388.071.672.147s.531.162.653.206l.472.188.048.268c.009.052.02.123.033.207q.009.063.019.135c.006.049.012.1.018.153s.011.106.016.161.009.111.012.167l0,.028q.1.054.194.112l.024-.012c.1-.05.2-.1.3-.139s.189-.08.268-.112.146-.057.193-.074l.258-.093.323.252.079.065.365.325.5.521.1.115c.024.028.047.057.068.082l.249.318-.093.257c-.018.048-.043.115-.075.2s-.069.17-.112.267-.089.2-.139.3l-.012.024q.057.1.112.194l.028,0,.168.013.16.016.153.018.136.019c.084.012.156.023.2.032l.27.048.186.468c.046.126.133.374.208.658s.125.541.147.669l.074.5-.213.18c-.038.031-.093.076-.159.128l-.109.084-.122.091-.131.094-.139.094h0l-.023.015c0,.037,0,.074,0,.112s0,.075,0,.112l.024.016.138.094.132.094.123.092.109.084c.066.052.121.1.16.129l.212.179-.073.5c-.022.13-.071.387-.147.672s-.161.531-.206.653l-.188.471-.27.049c-.049.009-.121.02-.206.032l-.134.019-.154.018-.16.016-.168.013-.028,0q-.054.1-.112.194l.012.024c.05.1.1.2.139.3s.08.188.112.267.057.147.074.194l.093.258-.249.319c-.021.026-.043.054-.069.083l-.325.365-.52.5-.116.1c-.028.025-.057.048-.084.069l-.317.247-.256-.093c-.048-.017-.115-.043-.2-.074s-.171-.069-.267-.112-.2-.089-.3-.139l-.025-.012q-.1.057-.194.112l0,.028c0,.056-.007.113-.012.168s-.01.108-.016.16-.012.1-.018.152-.013.094-.019.136c-.012.084-.024.155-.032.2l-.049.271-.468.186c-.126.046-.374.133-.658.208s-.54.124-.669.146Zm-3.252-1.132.083.031c.107.039.331.118.588.186s.49.113.606.133l.083.014.039-.049.075-.1.084-.114.086-.121c.028-.04.057-.082.085-.124s.056-.084.083-.127l.145-.232.21.01c.19.009.383.009.573,0l.21-.01.146.233c.026.041.054.084.083.126s.057.084.085.125l.086.12.083.112.066.085.049.062.085-.014c.115-.02.348-.063.6-.132s.482-.147.592-.187l.079-.03c0-.02.006-.041.009-.062.006-.038.011-.08.017-.124s.011-.09.016-.137.01-.1.015-.147.008-.1.011-.151.006-.1.009-.151l.009-.273.188-.1c.169-.087.336-.183.5-.286l.177-.114.186.1c.062.033.126.066.192.1.091.045.183.087.272.126s.171.073.243.1l.057.022.062-.051.465-.424.417-.457c.02-.023.037-.044.052-.063l-.022-.057c-.029-.073-.063-.156-.1-.244s-.081-.18-.126-.272c-.033-.066-.065-.13-.1-.192l-.1-.186.114-.177c.1-.159.2-.326.286-.5l.1-.186.274-.011.151-.008.15-.011.148-.014.139-.016.121-.017.063-.009.031-.083c.068-.184.135-.4.185-.587s.1-.41.133-.606l.014-.084-.049-.039-.1-.076-.113-.084-.12-.086-.124-.085-.127-.084-.224-.14,0-.215q.007-.143.007-.287t-.007-.287l-.01-.21.232-.145.127-.083.125-.086.12-.085.112-.084.095-.073.052-.041-.014-.086c-.033-.194-.082-.415-.132-.6s-.118-.4-.187-.593l-.03-.079-.062-.009-.124-.017-.137-.016-.147-.015-.151-.011-.15-.008-.274-.009-.1-.188c-.087-.169-.184-.336-.286-.5l-.114-.177.1-.186c.033-.062.066-.127.1-.193.045-.091.087-.183.126-.271s.073-.171.1-.243l.022-.057-.051-.062-.307-.344-.574-.537-.063-.052h0l-.057.022c-.073.029-.156.063-.243.1s-.181.081-.272.126c-.065.032-.13.065-.192.1l-.186.1-.177-.114c-.16-.1-.326-.2-.5-.286l-.188-.1-.009-.274c0-.05-.005-.1-.009-.151s-.007-.1-.011-.15-.009-.1-.015-.149-.01-.094-.016-.138-.011-.084-.017-.123c0-.022-.006-.042-.009-.062l-.083-.031c-.184-.067-.4-.135-.588-.186-.257-.069-.49-.113-.606-.133l-.084-.014-.039.049-.075.1-.084.113-.086.12c-.028.04-.057.083-.085.125s-.056.084-.083.126l-.145.232-.211-.01c-.191-.009-.383-.009-.573,0l-.211.01-.145-.233-.082-.125c-.028-.042-.057-.085-.086-.126l-.086-.12-.083-.112-.066-.085-.049-.062-.085.014c-.115.02-.348.063-.6.132-.189.051-.405.119-.592.187l-.079.03c0,.02-.006.04-.009.062-.005.039-.011.08-.017.124s-.011.089-.016.137-.01.1-.014.148-.008.1-.011.15-.006.1-.008.151l-.009.273-.188.1c-.169.087-.336.183-.5.286l-.177.114-.186-.1c-.062-.033-.126-.066-.192-.1-.091-.045-.183-.087-.272-.126s-.17-.073-.242-.1l-.058-.023h0l-.061.05-.465.425-.417.457-.052.063.022.057c.029.072.063.155.1.243s.081.18.126.271c.032.066.065.13.1.192l.1.186-.114.177c-.1.159-.2.326-.286.5l-.1.188-.271.009-.154.008-.15.011-.148.015-.138.016-.123.017-.063.009-.031.083c-.068.184-.135.4-.185.587s-.1.41-.133.606l-.014.084.049.039.1.076.112.083.12.086.125.086.127.083.224.14,0,.215q-.007.143-.007.287t.007.287l.01.21-.232.145-.126.083-.126.086-.12.086-.112.083-.1.076-.049.039.014.086c.033.194.082.415.132.6s.118.4.187.592l.03.079.062.009.125.017.136.016.148.014.15.011.151.008.274.011.1.186c.087.17.184.336.286.5l.114.177-.1.186c-.033.062-.066.127-.1.193-.045.091-.087.183-.126.271s-.073.171-.1.243l-.022.057c.015.019.032.04.05.061l.307.345.574.537.063.052.058-.023c.072-.029.155-.062.243-.1s.18-.081.272-.126c.065-.032.13-.065.192-.1l.186-.1.177.114c.16.1.326.2.5.286l.188.1.009.274c0,.05.005.1.008.151s.007.1.011.15.01.1.015.148.01.094.016.138.012.085.017.123l.009.062m8.955-6.868h0Z" transform="translate(-187.389 -78.903)"/><path class="b" d="M1530.994,1539.855a3.521,3.521,0,1,1,2.49-1.031,3.5,3.5,0,0,1-2.49,1.031m0-6.683a3.162,3.162,0,1,0,2.236.926,3.141,3.141,0,0,0-2.236-.926" transform="translate(-205.891 -97.407)"/><path class="b" d="M1545.671,1537.193a.4.4,0,1,1-.4-.4.4.4,0,0,1,.4.4" transform="translate(-220.169 -100.674)"/><path class="b" d="M1545.671,1564.006a.4.4,0,1,1-.4-.4.4.4,0,0,1,.4.4" transform="translate(-220.169 -122.67)"/><path class="b" d="M1558.682,1551a.4.4,0,1,1,.4-.4.4.4,0,0,1-.4.4" transform="translate(-231.167 -111.672)"/><path class="b" d="M1531.868,1551a.4.4,0,1,1,.4-.4.4.4,0,0,1-.4.4" transform="translate(-209.171 -111.672)"/><path class="b" d="M1554.475,1560.36a.4.4,0,1,1,.561,0,.4.4,0,0,1-.561,0" transform="translate(-227.946 -119.449)"/><path class="b" d="M1535.515,1541.4a.4.4,0,1,1,.561,0,.4.4,0,0,1-.561,0" transform="translate(-212.392 -103.896)"/><path class="b" d="M1535.515,1559.8a.4.4,0,1,1,0,.561.4.4,0,0,1,0-.561" transform="translate(-212.392 -119.449)"/><path class="b" d="M1554.475,1540.839a.4.4,0,1,1,0,.561.4.4,0,0,1,0-.561" transform="translate(-227.946 -103.896)"/><path class="b" d="M1288.084,1433.847l-.194-.112q-1.355-.783-2.713-1.559c-2.2-1.261-5.989-7.478-5.593-8.982.137-.519.276-1.037.426-1.594l.289-1.078h8.09c8.927,0,15.158,0,24.238.016h.008a2.212,2.212,0,0,0,1.664-.627c1.148-1.073,2.675-2.473,4.3-3.782a3.591,3.591,0,0,1,2.013-.747c1.5-.044,3.024-.046,4.5-.047,1.209,0,2.459,0,3.686-.027.408-.008.823,0,1.225.015a6.611,6.611,0,0,0,4.306-.86l.565-.392v3.694h-1.523l-2.7,0c-2.468,0-5.02.008-7.53-.02a1.151,1.151,0,0,0-1.2.681c-1.251,2.2-2.538,4.42-3.782,6.57q-1.159,2-2.314,4.009a.359.359,0,1,1-.623-.358q1.154-2.007,2.315-4.01c1.243-2.15,2.529-4.373,3.779-6.566a1.842,1.842,0,0,1,1.8-1.044h.04c2.506.028,5.056.023,7.521.02q1.351,0,2.7,0h.8V1415.4a7.994,7.994,0,0,1-4.173.645c-.392-.011-.8-.023-1.189-.015-1.234.025-2.488.026-3.7.027-1.469,0-2.987,0-4.477.047a2.867,2.867,0,0,0-1.584.588c-1.609,1.295-3.123,2.683-4.262,3.747a2.9,2.9,0,0,1-2.155.821h-.01c-9.078-.018-15.309-.017-24.236-.016h-7.539l-.147.546c-.149.555-.288,1.073-.425,1.59-.349,1.323,3.057,6.916,5.255,8.176q1.262.724,2.525,1.45a.626.626,0,0,0,.055-.036c.067-.073.138-.157.21-.242l.125-.147a9.432,9.432,0,0,1,9.334-3.2c2.518.453,5.187.946,8.4,1.554a.359.359,0,1,1-.134.706c-3.209-.607-5.875-1.1-8.391-1.552a8.754,8.754,0,0,0-8.665,2.964c-.04.046-.079.092-.118.139-.079.094-.159.188-.243.277a.949.949,0,0,1-.206.156c-.039.025-.089.056-.155.1Z" transform="translate(0)"/><path class="b" d="M1457.183,1511.914a.362.362,0,0,1-.068-.006l-3.334-.637a.359.359,0,1,1,.135-.706l3.335.638a.359.359,0,0,1-.067.712" transform="translate(-145.2 -79.15)"/><path class="b" d="M1424.949,1455.568h-13.083l.12-.452c.887-3.341.975-7.96-3.645-10.991a.359.359,0,0,1,.394-.6c4.981,3.268,4.758,8.323,4.058,11.325h11.237a9.976,9.976,0,0,1,1.609-8.306,9.441,9.441,0,0,1,7.2-3.765,9.064,9.064,0,0,1,6.551,2.4,9.532,9.532,0,0,1,3.041,8.747l.055-.022c.405-.164.779-.316,1.151-.469a2.55,2.55,0,0,0,1.848-2.778q-.071-.861-.144-1.723c-.162-1.926-.33-3.918-.444-5.882a2.316,2.316,0,0,0-1.072-1.865,5.09,5.09,0,0,1-1.944-2.469c-.365-1.253-1.582-5.468-2.086-7.644a.359.359,0,1,1,.7-.162c.5,2.158,1.712,6.357,2.072,7.592a4.368,4.368,0,0,0,1.69,2.108,3.035,3.035,0,0,1,1.357,2.4c.114,1.955.281,3.942.443,5.864q.073.862.144,1.725a3.262,3.262,0,0,1-2.291,3.5c-.374.154-.749.306-1.155.471l-1.237.5.11-.638c.627-3.642-.263-6.5-2.72-8.724a8.384,8.384,0,0,0-6.049-2.215,8.719,8.719,0,0,0-6.647,3.479,9.373,9.373,0,0,0-1.379,8.143Z" transform="translate(-108.031 -13.586)"/><path class="b" d="M1534.413,1449.715h-11.456l1.927-5.407a2,2,0,0,1,1.868-1.349h4.065a2,2,0,0,1,1.89,1.415Zm-10.437-.719h9.453l-1.406-4.4a1.28,1.28,0,0,0-1.206-.915h-4.065a1.284,1.284,0,0,0-1.191.871Z" transform="translate(-202.186 -23.698)"/><path class="b" d="M1550.333,1449.715a.36.36,0,0,1-.36-.359v-6.037a.359.359,0,1,1,.719,0v6.037a.359.359,0,0,1-.359.359" transform="translate(-224.349 -23.698)"/><path class="b" d="M1470.151,1499l-2.7-1.56,3.437-5.952,2.7,1.56Zm-1.72-1.823,1.457.841,2.718-4.707-1.457-.841Z" transform="translate(-156.653 -63.508)"/><path class="b" d="M1441.11,1484.433l-2.7-1.56,3.437-5.952,2.7,1.56Zm-1.72-1.823,1.457.841,2.718-4.707-1.457-.841Z" transform="translate(-132.83 -51.557)"/></g></svg>